# xmcd
#
# Track frame offsets: 
#        150
#        24523
#        38260
#        51945
#        63293
#        74480
#        89213
#        101638
#        115193
#        126003
#        148943
#        161640
#
# Disc length: 2348 seconds
#
# Revision: 0
# Processed by: cddbd v1.5.1PL0 Copyright (c) Steve Scherf et al.
# Submitted via: ExactAudioCopy v0.95b2
#
DISCID=aa092a0c
DTITLE=JAMES BROWN  - JAMES BROWN BEST
DYEAR=1900
DGENRE=Funk
TTITLE0=DOING IT TO DEATH 
TTITLE1=SOUL POWER
TTITLE2=MAY BE LAST TIME
TTITLE3=TRY ME
TTITLE4=PRISONER OF LOVE
TTITLE5=IT'S A MAN'S WORLD
TTITLE6=PLEASE PLEASE PLEASE
TTITLE7=SUPER BAD
TTITLE8=OUT OF SIGHT
TTITLE9=SEX MACHINE
TTITLE10=LICKING STICK - LICKING STICK
TTITLE11=THINK
EXTD=
EXTT0=
EXTT1=
EXTT2=
EXTT3=
EXTT4=
EXTT5=
EXTT6=
EXTT7=
EXTT8=
EXTT9=
EXTT10=
EXTT11=
PLAYORDER=
